<?xml version="1.0" encoding="UTF-8" standalone="no"?>
<!-- Created with Inkscape (http://www.inkscape.org/) -->

<svg
   xmlns:dc="http://purl.org/dc/elements/1.1/"
   xmlns:cc="http://creativecommons.org/ns#"
   xmlns:rdf="http://www.w3.org/1999/02/22-rdf-syntax-ns#"
   xmlns:svg="http://www.w3.org/2000/svg"
   xmlns="http://www.w3.org/2000/svg"
   xmlns:sodipodi="http://sodipodi.sourceforge.net/DTD/sodipodi-0.dtd"
   xmlns:inkscape="http://www.inkscape.org/namespaces/inkscape"
   width="1052.3622"
   height="744.09448"
   id="svg2"
   version="1.1"
   inkscape:version="0.48.2 r9819"
   sodipodi:docname="channels.svg"
   inkscape:export-filename="/Users/matt/Dropbox/dev/modelr/tmp/channels.png"
   inkscape:export-xdpi="42.759998"
   inkscape:export-ydpi="42.759998">
  <defs
     id="defs4" />
  <sodipodi:namedview
     id="base"
     pagecolor="#ffffff"
     bordercolor="#666666"
     borderopacity="1.0"
     inkscape:pageopacity="0.0"
     inkscape:pageshadow="2"
     inkscape:zoom="0.58191535"
     inkscape:cx="526.18109"
     inkscape:cy="372.04724"
     inkscape:document-units="px"
     inkscape:current-layer="layer1"
     showgrid="false"
     inkscape:window-width="919"
     inkscape:window-height="616"
     inkscape:window-x="1343"
     inkscape:window-y="232"
     inkscape:window-maximized="0" />
  <metadata
     id="metadata7">
    <rdf:RDF>
      <cc:Work
         rdf:about="">
        <dc:format>image/svg+xml</dc:format>
        <dc:type
           rdf:resource="http://purl.org/dc/dcmitype/StillImage" />
        <dc:title></dc:title>
      </cc:Work>
    </rdf:RDF>
  </metadata>
  <g
     inkscape:label="Layer 1"
     inkscape:groupmode="layer"
     id="layer1"
     transform="translate(0,-308.2677)">
    <rect
       style="fill:#888888;fill-opacity:1;stroke:none"
       id="rect3753"
       width="1053.4178"
       height="745.81293"
       x="-3.0658537e-06"
       y="308.2677" />
    <rect
       y="543.69714"
       x="-1.7184631"
       height="42.961575"
       width="1060.2916"
       id="rect3757"
       style="fill:#666666;fill-opacity:1;stroke:none" />
    <path
       style="fill:#eec73e;stroke:none"
       d="M 943.14062,513.84603 C 885.93963,612.61524 699.09174,670.91278 644.7192,512.7648 z"
       id="path3779"
       inkscape:connector-curvature="0"
       sodipodi:nodetypes="ccc" />
    <rect
       style="fill:#666666;fill-opacity:1;stroke:none"
       id="rect3755"
       width="1060.2916"
       height="15.466166"
       x="-1.7184631"
       y="505.89093" />
    <rect
       y="806.62201"
       x="-1.7184631"
       height="10.310778"
       width="1060.2916"
       id="rect3761"
       style="fill:#666666;fill-opacity:1;stroke:none" />
    <rect
       style="fill:#666666;fill-opacity:1;stroke:none"
       id="rect3763"
       width="1060.2916"
       height="10.310778"
       x="-1.7184631"
       y="713.82501" />
    <rect
       style="fill:#666666;fill-opacity:1;stroke:none"
       id="rect3759"
       width="1060.2916"
       height="80.767761"
       x="-1.7184631"
       y="615.87262" />
    <rect
       y="385.59857"
       x="-1.7184631"
       height="10.310778"
       width="1060.2916"
       id="rect3765"
       style="fill:#666666;fill-opacity:1;stroke:none" />
    <rect
       style="fill:#666666;fill-opacity:1;stroke:none"
       id="rect3767"
       width="1060.2916"
       height="10.310778"
       x="-1.7184631"
       y="926.91443" />
    <rect
       style="fill:#666666;fill-opacity:1;stroke:none"
       id="rect3769"
       width="1060.2916"
       height="42.961575"
       x="-1.7184631"
       y="832.39893" />
    <rect
       y="944.099"
       x="-1.7184631"
       height="42.961575"
       width="1060.2916"
       id="rect3771"
       style="fill:#666666;fill-opacity:1;stroke:none" />
    <rect
       style="fill:#666666;fill-opacity:1;stroke:none"
       id="rect3773"
       width="1060.2916"
       height="42.961575"
       x="-1.7184631"
       y="320.29694" />
    <rect
       style="fill:#666666;fill-opacity:1;stroke:none"
       id="rect3775"
       width="1060.2916"
       height="10.310778"
       x="-1.7184631"
       y="469.80325" />
    <rect
       y="1024.8668"
       x="-1.7184631"
       height="10.310778"
       width="1060.2916"
       id="rect3777"
       style="fill:#666666;fill-opacity:1;stroke:none" />
    <path
       sodipodi:nodetypes="ccc"
       inkscape:connector-curvature="0"
       id="path3783"
       d="M 54.990817,672.58185 C 229.42462,769.90239 449.80268,917.26359 529.28661,670.86339 z"
       style="fill:#eec73e;stroke:none" />
    <rect
       y="615.87262"
       x="-1.7184631"
       height="80.767761"
       width="1060.2916"
       id="rect3781"
       style="fill:#666666;fill-opacity:1;stroke:none" />
    <path
       sodipodi:type="arc"
       style="fill:#0197fd;fill-opacity:1;stroke:none"
       id="path3785"
       sodipodi:cx="69.597755"
       sodipodi:cy="140.91397"
       sodipodi:rx="35.228493"
       sodipodi:ry="12.029241"
       d="m 104.82625,140.91397 a 35.228493,12.029241 0 1 1 -70.456987,0 35.228493,12.029241 0 1 1 70.456987,0 z"
       transform="translate(0,272.2677)" />
    <path
       transform="translate(53.272353,272.2677)"
       d="m 104.82625,140.91397 a 35.228493,12.029241 0 1 1 -70.456987,0 35.228493,12.029241 0 1 1 70.456987,0 z"
       sodipodi:ry="12.029241"
       sodipodi:rx="35.228493"
       sodipodi:cy="140.91397"
       sodipodi:cx="69.597755"
       id="path3787"
       style="fill:#0197fd;fill-opacity:1;stroke:none"
       sodipodi:type="arc" />
    <path
       sodipodi:type="arc"
       style="fill:#0197fd;fill-opacity:1;stroke:none"
       id="path3789"
       sodipodi:cx="69.597755"
       sodipodi:cy="140.91397"
       sodipodi:rx="35.228493"
       sodipodi:ry="12.029241"
       d="m 104.82625,140.91397 a 35.228493,12.029241 0 1 1 -70.456987,0 35.228493,12.029241 0 1 1 70.456987,0 z"
       transform="translate(180.43861,272.2677)" />
    <path
       transform="translate(465.70347,272.2677)"
       d="m 104.82625,140.91397 a 35.228493,12.029241 0 1 1 -70.456987,0 35.228493,12.029241 0 1 1 70.456987,0 z"
       sodipodi:ry="12.029241"
       sodipodi:rx="35.228493"
       sodipodi:cy="140.91397"
       sodipodi:cx="69.597755"
       id="path3791"
       style="fill:#0197fd;fill-opacity:1;stroke:none"
       sodipodi:type="arc" />
    <path
       sodipodi:type="arc"
       style="fill:#0197fd;fill-opacity:1;stroke:none"
       id="path3793"
       sodipodi:cx="69.597755"
       sodipodi:cy="140.91397"
       sodipodi:rx="35.228493"
       sodipodi:ry="12.029241"
       d="m 104.82625,140.91397 a 35.228493,12.029241 0 1 1 -70.456987,0 35.228493,12.029241 0 1 1 70.456987,0 z"
       transform="translate(623.80207,272.2677)" />
    <path
       transform="translate(773.30835,272.2677)"
       d="m 104.82625,140.91397 a 35.228493,12.029241 0 1 1 -70.456987,0 35.228493,12.029241 0 1 1 70.456987,0 z"
       sodipodi:ry="12.029241"
       sodipodi:rx="35.228493"
       sodipodi:cy="140.91397"
       sodipodi:cx="69.597755"
       id="path3795"
       style="fill:#0197fd;fill-opacity:1;stroke:none"
       sodipodi:type="arc" />
    <path
       sodipodi:type="arc"
       style="fill:#0197fd;fill-opacity:1;stroke:none"
       id="path3797"
       sodipodi:cx="69.597755"
       sodipodi:cy="140.91397"
       sodipodi:rx="35.228493"
       sodipodi:ry="12.029241"
       d="m 104.82625,140.91397 a 35.228493,12.029241 0 1 1 -70.456987,0 35.228493,12.029241 0 1 1 70.456987,0 z"
       transform="translate(936.56234,272.2677)" />
    <path
       sodipodi:type="arc"
       style="fill:#0197fd;fill-opacity:1;stroke:none"
       id="path3799"
       sodipodi:cx="69.597755"
       sodipodi:cy="140.91397"
       sodipodi:rx="35.228493"
       sodipodi:ry="12.029241"
       d="m 104.82625,140.91397 a 35.228493,12.029241 0 1 1 -70.456987,0 35.228493,12.029241 0 1 1 70.456987,0 z"
       transform="translate(369.46955,272.2677)" />
    <path
       transform="translate(872.97921,272.2677)"
       d="m 104.82625,140.91397 a 35.228493,12.029241 0 1 1 -70.456987,0 35.228493,12.029241 0 1 1 70.456987,0 z"
       sodipodi:ry="12.029241"
       sodipodi:rx="35.228493"
       sodipodi:cy="140.91397"
       sodipodi:cx="69.597755"
       id="path3801"
       style="fill:#0197fd;fill-opacity:1;stroke:none"
       sodipodi:type="arc" />
    <path
       sodipodi:type="arc"
       style="fill:#0197fd;fill-opacity:1;stroke:none"
       id="path3803"
       sodipodi:cx="69.597755"
       sodipodi:cy="140.91397"
       sodipodi:rx="35.228493"
       sodipodi:ry="12.029241"
       d="m 104.82625,140.91397 a 35.228493,12.029241 0 1 1 -70.456987,0 35.228493,12.029241 0 1 1 70.456987,0 z"
       transform="translate(773.30835,272.2677)" />
    <path
       transform="translate(321.35259,272.2677)"
       d="m 104.82625,140.91397 a 35.228493,12.029241 0 1 1 -70.456987,0 35.228493,12.029241 0 1 1 70.456987,0 z"
       sodipodi:ry="12.029241"
       sodipodi:rx="35.228493"
       sodipodi:cy="140.91397"
       sodipodi:cx="69.597755"
       id="path3805"
       style="fill:#0197fd;fill-opacity:1;stroke:none"
       sodipodi:type="arc" />
  </g>
</svg>
